<svg xmlns="http://www.w3.org/2000/svg" xml:space="preserve" style="fill-rule:evenodd;clip-rule:evenodd;stroke-linejoin:round;stroke-miterlimit:2" viewBox="0 0 1143 96"><path d="M1085.943 36.751V1.01a.9.9 0 0 1 .896-.896h30.76a.9.9 0 0 1 .896.896v93.942a.9.9 0 0 1-.896.896h-30.76a.9.9 0 0 1-.896-.896V59.254a.924.924 0 0 0-.918-.918h-55.207a.924.924 0 0 0-.918.918v35.741a.9.9 0 0 1-.896.896h-30.76a.9.9 0 0 1-.896-.896V1.053a.9.9 0 0 1 .896-.896h30.76a.9.9 0 0 1 .896.896v35.698c0 .502.415.918.918.918h55.207a.924.924 0 0 0 .918-.918ZM351.298 24.298l.004.087a.9.9 0 0 1-.856.896h-62.963a.924.924 0 0 0-.918.918v10.574c0 .502.415.918.918.918h52.105c.502 0 .918.415.918.918v18.81a.924.924 0 0 1-.918.918h-52.105a.924.924 0 0 0-.918.918v10.552c0 .502.415.918.918.918h63.072c.502 0 .918.415.918.918v23.289a.9.9 0 0 1-.896.896h-95.58a.9.9 0 0 1-.896-.896V28.845a.882.882 0 0 1 0-.415L268.258.641a.875.875 0 0 1 .808-.481h81.336a.9.9 0 0 1 .896.896v23.245ZM719.636.266a.893.893 0 0 1 .808.481l47.823 93.942a.889.889 0 0 1 .103.415.9.9 0 0 1-.896.896h-34.512a.916.916 0 0 1-.83-.481l-29.406-57.741a.92.92 0 0 0-1.616 0l-29.428 57.741a.875.875 0 0 1-.808.481h-34.496a.924.924 0 0 1-.92-.918c0-.135.031-.271.09-.393L683.393.747a.875.875 0 0 1 .808-.481h35.436Zm-87.65.371a.875.875 0 0 1 .808-.481h34.512a.9.9 0 0 1 .896.896.889.889 0 0 1-.103.415l-47.845 93.942a.942.942 0 0 1-.83.481h-18.482a.874.874 0 0 1-.808-.481l-23.398-45.878a.92.92 0 0 0-1.616 0l-23.398 45.878a.898.898 0 0 1-.808.481h-18.526a.874.874 0 0 1-.808-.481L483.735 1.467a.889.889 0 0 1-.103-.415.9.9 0 0 1 .896-.896h34.533a.874.874 0 0 1 .808.481l20.973 41.138a.898.898 0 0 0 1.616 0L563.409.637a.918.918 0 0 1 .83-.481h23.376a.874.874 0 0 1 .808.481l20.973 41.138a.898.898 0 0 0 1.616 0L631.985.637ZM957.788.266c13.96 0 25.277 8.739 25.277 19.662V36.75a.924.924 0 0 1-.918.918h-30.739a.924.924 0 0 1-.918-.918v-6.925c0-2.506-2.06-4.566-4.566-4.566h-47.91c-2.499.011-4.555 2.067-4.566 4.566v36.353c.011 2.499 2.067 4.555 4.566 4.566h47.91c2.506 0 4.566-2.06 4.566-4.566v-6.925c0-.502.415-.918.918-.918h30.87c.502 0 .918.415.918.918v16.888c0 10.945-11.317 19.793-25.277 19.793h-71.636c-13.938 0-25.255-8.87-25.255-19.793V32.6a.882.882 0 0 1 0-.415l15.293-30.083a.879.879 0 0 1 .546-.459 31.186 31.186 0 0 1 9.285-1.376h71.636Zm-96.913 0a.9.9 0 0 1 .863.896.91.91 0 0 1-.055.306L849.82 24.757a.922.922 0 0 1-.808.502h-33.098a.924.924 0 0 0-.918.918v68.861a.9.9 0 0 1-.896.896h-30.76a.9.9 0 0 1-.896-.896V26.286a.924.924 0 0 0-.918-.918h-33.098a.894.894 0 0 1-.808-.502L735.757 1.577a.889.889 0 0 1-.103-.415.9.9 0 0 1 .896-.896h124.324ZM205.119 95.344a.893.893 0 0 1-.808.546h-35.436a.874.874 0 0 1-.808-.481L120.222 1.467a.908.908 0 0 1-.09-.393c0-.502.415-.918.92-.918h34.496a.874.874 0 0 1 .808.481l29.471 57.741a.92.92 0 0 0 1.616 0L216.805.571a.918.918 0 0 1 .83-.481h34.512a.9.9 0 0 1 .896.896.889.889 0 0 1-.103.415l-47.823 93.942ZM105.41 1.621l16.735 32.661a.882.882 0 0 1 0 .415v41.334c0 10.945-11.295 19.793-25.255 19.793H25.254a31.443 31.443 0 0 1-9.984-1.595.92.92 0 0 1-.262-1.595l28.139-21.716a.835.835 0 0 1 .546-.197h41.334c2.499-.011 4.555-2.067 4.566-4.566V29.824c-.011-2.499-2.067-4.555-4.566-4.566h-47.91c-2.499.011-4.555 2.067-4.566 4.566v32.028a.918.918 0 0 1-.35.721L3.669 84.595a.92.92 0 0 1-1.355-.284 16.236 16.236 0 0 1-2.316-8.302V19.928C-.002 9.005 11.293.266 25.253.157h71.636a32.452 32.452 0 0 1 7.952.983c.249.07.457.245.568.481Zm337.447 36.047c2.477-.07 4.461-2.154 4.413-4.632v-3.211c0-2.506-2.06-4.566-4.566-4.566h-44.742a.924.924 0 0 0-.918.918v68.796a.9.9 0 0 1-.896.896h-30.76a.9.9 0 0 1-.896-.896V1.031a.9.9 0 0 1 .896-.896h89.572c13.96 0 25.255 8.87 25.255 19.793v18.548c0 10.923-11.295 19.793-25.255 19.793h-.677l39.019 35.938a.896.896 0 0 1 .365.721.9.9 0 0 1-.889.896h-41.225a.804.804 0 0 1-.612-.24l-40.023-36.878a1.308 1.308 0 0 1-.437-1.005V38.563a.9.9 0 0 1 .896-.896h31.481ZM1136.532 0a6.322 6.322 0 0 1 6.32 6.32 6.322 6.322 0 0 1-6.32 6.32 6.322 6.322 0 0 1-6.32-6.32 6.322 6.322 0 0 1 6.32-6.32Zm0 1.079a5.244 5.244 0 0 0-5.241 5.241 5.244 5.244 0 0 0 5.241 5.241 5.244 5.244 0 0 0 5.241-5.241 5.244 5.244 0 0 0-5.241-5.241Zm-1.324 5.979v2.659h-.874V2.864h2.346c.533 0 .972.09 1.317.273.345.181.601.433.769.752.166.319.251.682.251 1.09 0 .409-.085.769-.251 1.081a1.76 1.76 0 0 1-.767.734 2.201 2.201 0 0 1-.251.107l1.536 2.816h-1.014l-1.427-2.661-.159.002h-1.477Zm0-.778h1.435c.363 0 .653-.052.872-.159.218-.105.38-.256.481-.45.1-.194.153-.426.153-.693 0-.273-.052-.509-.153-.71a1.049 1.049 0 0 0-.483-.47c-.221-.111-.513-.168-.878-.168h-1.427v2.65Z" style="fill:#fff"/></svg>