<svg viewBox="0 0 905 97" xmlns="http://www.w3.org/2000/svg" width="800" xml:space="preserve" style="fill-rule:evenodd;clip-rule:evenodd;stroke-linejoin:round;stroke-miterlimit:2"><path d="M904.875 8.084A8.087 8.087 0 0 0 896.791 0h-64.67a8.088 8.088 0 0 0-8.084 8.084v80.75a8.088 8.088 0 0 0 8.084 8.084h64.67a8.087 8.087 0 0 0 8.084-8.084V8.084Z" style="fill:#f06414"/><path d="m856.743 67.961 33.109.015v3.111a10.353 10.353 0 0 1-4.463 9.331 7.779 7.779 0 0 1-4.479 1.415h-41.756v-8.616a12.254 12.254 0 0 1 2.892-8.009 53.794 53.794 0 0 1 3.857-3.888l40.901-38.754c.393.899.69 1.837.886 2.799.161.82.244 1.653.249 2.488.016 1.82.031 3.655-.093 5.474a13.877 13.877 0 0 1-2.815 7.543 31.152 31.152 0 0 1-4.09 4.23l-24.198 22.861Zm25.846-50.683-12.332 11.601H854.55v7.776h-13.841v-6.22a16.73 16.73 0 0 1 2.301-8.989 12.322 12.322 0 0 1 7.076-6.05 9.008 9.008 0 0 1 2.411-.326h24.323c2.124.027 4.17.81 5.769 2.208ZM773.028 15.038l-.001-.031a.64.64 0 0 1 .638-.637h21.897a.64.64 0 0 1 .638.637V81.88a.64.64 0 0 1-.638.637h-21.897a.64.64 0 0 1-.637-.637V56.468a.656.656 0 0 0-.653-.653h-39.3a.656.656 0 0 0-.653.653v25.443a.64.64 0 0 1-.637.637h-21.882l-.015.001a.641.641 0 0 1-.638-.638V15.038a.64.64 0 0 1 .638-.637H731.785a.64.64 0 0 1 .637.637V40.45c0 .358.295.653.653.653h39.3a.656.656 0 0 0 .653-.653V15.038ZM250.071 31.585a.64.64 0 0 1-.606.7h-44.82a.657.657 0 0 0-.654.653v7.527c0 .359.295.654.654.654h37.09c.359 0 .654.295.654.653v13.39a.657.657 0 0 1-.654.653h-37.09a.657.657 0 0 0-.654.653v7.512c0 .358.295.653.654.653h44.897c.359 0 .654.295.654.653v16.578c0 .35-.288.638-.638.638H181.519a.64.64 0 0 1-.637-.638V34.82a.64.64 0 0 1 0-.295l10.077-19.782a.623.623 0 0 1 .576-.342h57.899a.64.64 0 0 1 .637.637v16.547Zm262.202-17.106a.636.636 0 0 1 .575.342l34.043 66.872a.64.64 0 0 1-.565.933h-24.567a.655.655 0 0 1-.591-.342l-20.932-41.103a.655.655 0 0 0-1.151 0l-20.948 41.103a.623.623 0 0 1-.576.342h-24.556a.657.657 0 0 1-.591-.933l34.058-66.872a.623.623 0 0 1 .576-.342h25.225Zm-62.394.264a.623.623 0 0 1 .576-.342H475.021a.64.64 0 0 1 .565.933l-34.058 66.872a.668.668 0 0 1-.591.342H427.78a.623.623 0 0 1-.575-.342l-16.656-32.658a.653.653 0 0 0-1.151 0l-16.656 32.658a.635.635 0 0 1-.575.342h-13.188a.62.62 0 0 1-.575-.342l-34.059-66.872a.64.64 0 0 1 .565-.934l.026.001h24.557a.623.623 0 0 1 .575.342l14.93 29.284a.638.638 0 0 0 1.15 0l14.914-29.284a.655.655 0 0 1 .591-.342h16.641a.622.622 0 0 1 .575.342l14.93 29.284a.638.638 0 0 0 1.151 0l14.929-29.284Zm231.923-.264c9.937 0 17.993 6.22 17.993 13.996V40.45a.656.656 0 0 1-.653.653H677.26a.656.656 0 0 1-.653-.653v-4.93a3.265 3.265 0 0 0-3.25-3.25h-34.105a3.28 3.28 0 0 0-3.25 3.25v25.878a3.28 3.28 0 0 0 3.25 3.25h34.105a3.265 3.265 0 0 0 3.25-3.25v-4.93c0-.358.295-.653.653-.653h21.975c.358 0 .653.295.653.653V68.49c0 7.791-8.056 14.089-17.993 14.089h-50.994c-9.922 0-17.978-6.314-17.978-14.089V37.495a.64.64 0 0 1 0-.295l10.886-21.415a.627.627 0 0 1 .389-.327 22.199 22.199 0 0 1 6.61-.979h50.994Zm-68.988 0a.64.64 0 0 1 .576.855l-8.445 16.578a.654.654 0 0 1-.575.358h-23.561a.656.656 0 0 0-.653.653v49.019a.64.64 0 0 1-.638.637h-21.897a.64.64 0 0 1-.637-.637V33.001a.656.656 0 0 0-.653-.653H532.77a.643.643 0 0 1-.576-.358l-8.444-16.578a.635.635 0 0 1 .565-.933H612.814ZM146.015 82.16a.638.638 0 0 1-.576.388h-25.224a.623.623 0 0 1-.576-.342L85.581 15.334a.656.656 0 0 1 .59-.933h24.557a.62.62 0 0 1 .575.342l20.98 41.103a.652.652 0 0 0 1.15 0l20.902-41.15a.656.656 0 0 1 .591-.342H179.492a.641.641 0 0 1 .565.933L146.015 82.16ZM75.037 15.443l11.912 23.25a.613.613 0 0 1 0 .295v29.424c0 7.791-8.04 14.09-17.977 14.09H17.978a22.374 22.374 0 0 1-7.107-1.136.653.653 0 0 1-.187-1.135l20.031-15.458a.586.586 0 0 1 .388-.14h29.424a3.281 3.281 0 0 0 3.25-3.25V35.52a3.28 3.28 0 0 0-3.25-3.25H26.422a3.28 3.28 0 0 0-3.25 3.25v22.799c0 .2-.092.389-.249.513L2.613 74.508a.653.653 0 0 1-.965-.202A11.563 11.563 0 0 1 0 68.396V28.475c0-7.776 8.04-13.996 17.978-14.074h50.994c1.908-.001 3.81.234 5.661.7a.64.64 0 0 1 .404.342Zm240.211 25.66a3.25 3.25 0 0 0 3.142-3.297V35.52a3.266 3.266 0 0 0-3.251-3.25H283.29a.657.657 0 0 0-.654.653v48.972a.64.64 0 0 1-.637.638h-21.897a.641.641 0 0 1-.638-.638V15.023c0-.35.288-.638.638-.638h63.762c9.937 0 17.978 6.314 17.978 14.09v13.204c0 7.775-8.041 14.089-17.978 14.089h-.482l27.775 25.583a.638.638 0 0 1-.373 1.151h-29.346a.578.578 0 0 1-.436-.171l-28.49-26.252a.932.932 0 0 1-.311-.715V41.756l-.001-.015c0-.35.288-.638.638-.638h22.41ZM809.776 8.445h-.015a3.797 3.797 0 0 1-3.779-3.779 3.797 3.797 0 0 1 3.779-3.78 3.797 3.797 0 0 1 3.779 3.78 3.797 3.797 0 0 1-3.764 3.779Zm3.111-3.779a3.125 3.125 0 0 0-3.111-3.111 3.125 3.125 0 0 0-3.11 3.111 3.125 3.125 0 0 0 3.11 3.11 3.125 3.125 0 0 0 3.111-3.11Zm-4.51-2.178h.902a6.018 6.018 0 0 1 1.057 0c.2.035.388.121.545.249.282.251.431.619.404.995a1.17 1.17 0 0 1-.964 1.26l1.337 1.804h-1.182l-1.166-1.648v1.648h-.933V2.488Zm.964.778v1.151h.093c.207.019.415-.013.607-.094a.497.497 0 0 0 .233-.466.53.53 0 0 0-.171-.451.932.932 0 0 0-.591-.14h-.171Z" style="fill:#fff"/></svg>